<?xml version="1.0" encoding="UTF-8" standalone="no"?><!DOCTYPE svg PUBLIC "-//W3C//DTD SVG 1.1//EN" "http://www.w3.org/Graphics/SVG/1.1/DTD/svg11.dtd"><svg width="100%" height="100%" viewBox="0 0 2084 2084" version="1.1" xmlns="http://www.w3.org/2000/svg" xmlns:xlink="http://www.w3.org/1999/xlink" xml:space="preserve" xmlns:serif="http://www.serif.com/" style="fill-rule:evenodd;clip-rule:evenodd;stroke-linejoin:round;stroke-miterlimit:2;"><g><path d="M880.583,1231.42c-26.546,-25.44 -61.883,-39.649 -98.666,-39.649c-36.768,0 -72.121,14.21 -98.65,39.649c-19.792,19.954 -33.073,45.441 -38.086,73.096c-5.013,27.652 -1.546,56.166 9.961,81.804l-223.959,224.95c-45.883,44.4 25.163,115.429 69.563,69.562l224.95,-224.95l-0.016,0c17.757,8.317 37.125,12.696 56.737,12.826c37.028,0.081 72.558,-14.665 98.667,-40.951c26.513,-25.976 41.455,-61.541 41.455,-98.666c-0,-37.11 -14.942,-72.671 -41.455,-98.65l-0.501,0.979Zm-69.562,126.775l0.016,0.016c-15.674,15.657 -41.064,15.657 -56.737,-0c-15.658,-15.674 -15.658,-41.065 -0,-56.738c7.275,-7.747 17.496,-12.06 28.125,-11.832c10.742,-0.13 21.077,4.15 28.613,11.832c7.455,7.471 11.702,17.562 11.832,28.125c-0.097,10.71 -4.345,20.964 -11.832,28.614l-0.017,-0.017Z" style="fill-rule:nonzero;"/><path d="M1893.83,656.25l-377.879,261.458l-321.142,-321.646l260.971,-377.391c15.495,-22.347 9.977,-53.013 -12.337,-68.571c-22.347,-15.478 -53.012,-9.961 -68.571,12.337l-261.945,378.371c-29.444,-4.639 -59.325,5.078 -80.405,26.155l-97.183,95.2c-15.43,15.805 -24.772,36.556 -26.4,58.58c-1.627,22.021 4.574,43.895 17.513,61.8l-613.166,378.858c-16.748,10.433 -25.684,29.834 -22.689,49.333c36.507,230.875 -23.193,435.125 -92.742,641.292l-0.016,-0c-5.843,17.757 -1.139,37.288 12.126,50.437c13.265,13.168 32.829,17.709 50.537,11.719c206.2,-69.562 410.434,-128.758 641.292,-92.742c19.499,2.979 38.9,-5.94 49.333,-22.688l378.859,-613.209c15.69,10.775 34.245,16.618 53.271,16.781c24.804,0.781 48.925,-8.269 67.091,-25.163l94.725,-98.667c21.126,-21.029 30.859,-50.958 26.139,-80.404l378.859,-262.433l0.016,-0.017c11.491,-7.128 19.548,-18.668 22.282,-31.917c2.751,-13.249 -0.081,-27.035 -7.796,-38.151c-7.715,-11.1 -19.662,-18.555 -33.041,-20.605c-13.378,-2.051 -27.002,1.481 -37.695,9.782l-0.007,1.501Zm-1007.83,1063.58c-190.446,-18.115 -382.537,6.315 -562.375,71.534c64.438,-180.875 88.038,-373.78 69.075,-564.834l604.333,-373.925l260.971,261.459l-372.004,605.766Zm497.75,-618.125l-373.438,-373.437l88.801,-88.296l372.949,373.438l-88.312,88.295Z" style="fill-rule:nonzero;"/></g></svg>